<?xml version="1.0" encoding="UTF-8"?>
<svg id="Layer_2" data-name="Layer 2" xmlns="http://www.w3.org/2000/svg" viewBox="0 0 785.67 222.6">
  <defs>
    <style>
      .cls-1 {
        fill: #0d0d16;
      }

      .cls-2 {
        fill: #ffa000;
      }

      .cls-2, .cls-3, .cls-4 {
        fill-rule: evenodd;
      }

      .cls-3 {
        fill: #ff0064;
      }

      .cls-4 {
        fill: #0082bc;
      }
    </style>
  </defs>
  <g id="Layer_1-2" data-name="Layer 1">
    <g>
      <g>
        <g>
          <path class="cls-1" d="m203.2,105.92c-1.32,6.94-1.98,12.56,5.77,12.56,5.93,0,11.37-4.14,15.66-8.72l8.08-46.39h25.05l-12.2,70.77h-9.56l-7.58-9.9c-6.76,5.62-16.48,11.53-27.36,11.82-17.64,0-26.54-10.78-23.24-29.25l7.58-43.44h25.05l-7.25,42.55Z"/>
          <path class="cls-1" d="m317.76,66.47l6.1-34.28h2.14c6.92,2.21,14.67,3.99,21.76,6.2l-16.65,95.74h-7.58l-6.59-9.16c-5.77,7.09-13.35,10.93-23.41,10.93-20.77,0-32.97-14.48-28.85-38.56,3.96-22.31,20.44-35.76,37.75-35.76,5.93.3,11.04,2.37,15.33,4.88Zm-28.02,29.84c-2.31,13.15-.82,22.01,7.75,22.01,7.58,0,12.2-4.73,14.34-18.02l2.8-16.25c-3.63-2.95-6.92-4.73-11.21-4.87-8.57,0-11.87,6.65-13.68,17.14Z"/>
          <path class="cls-1" d="m403.47,91.58c1.15-6.8,1.65-12.41-5.93-12.41-5.6,0-10.88,3.69-15.17,7.24l-8.24,47.72h-25.05l16.48-95.74,24.23-6.2h2.14l-6.43,36.2c5.93-3.4,13.02-6.8,19.94-6.8,17.64,0,26.54,10.93,23.41,29.11l-7.58,43.44h-25.05l7.25-42.55Z"/>
          <path class="cls-1" d="m467.1,105.92c-1.32,6.94-1.98,12.56,5.77,12.56,5.93,0,11.37-4.14,15.66-8.72l8.08-46.39h25.05l-12.2,70.77h-9.56l-7.58-9.9c-6.76,5.62-16.48,11.53-27.36,11.82-17.64,0-26.54-10.78-23.24-29.25l7.58-43.44h25.05l-7.25,42.55Z"/>
          <path class="cls-1" d="m623.35,91.58c1.15-6.8,2.14-12.41-4.12-12.41-5.44,0-10.22,3.54-14.51,7.24-.16,1.33-.33,2.81-.66,4.29l-7.58,43.44h-24.89l7.25-42.55c1.15-6.8,1.98-12.41-4.12-12.41-5.27,0-9.89,3.54-14.18,6.94l-8.24,48.02h-25.05l12.36-70.92h9.4c2.14,3.25,4.62,6.35,6.76,9.45,6.76-5.17,16.81-11.08,26.54-11.08s15.82,3.55,19.29,10.05c6.76-4.87,15.82-10.05,24.73-10.05,16.48,0,25.38,10.93,22.09,29.11l-7.42,43.44h-25.05l7.42-42.55Z"/>
          <path class="cls-1" d="m738.9,64.11l-12.2,70.03h-9.4c-1.81-2.81-3.63-5.91-5.27-8.72-5.93,6.8-13.52,10.49-22.91,10.49-19.95,0-32.97-14.18-29.18-36.79,4.12-23.05,22.42-36.34,40.71-37.53,12.86-.74,27.2.59,38.24,2.51Zm-53.9,34.72c-1.98,11.82-.16,19.5,8.08,19.5s12.53-6.35,15-20.83l3.13-18.02c-2.97-.29-4.94-.74-8.9-.29-10.22,1.18-15.16,7.98-17.31,19.65Z"/>
          <path class="cls-1" d="m767.75,134.14h-25.05l11.21-64.71c7.75-2.07,15.49-4.14,23.08-6.06h2.97l-12.2,70.77Zm.99-78.16c-10.22,0-13.35-5.91-12.2-13,1.32-7.24,6.43-13.15,16.81-13.15s13.35,5.91,12.03,13.15c-1.15,7.09-6.43,13-16.65,13Z"/>
        </g>
        <g>
          <path class="cls-1" d="m537.84,187.23h5.01c9.9,0,20.16-1.64,22.48-14.89,2.32-13.14-6.72-16.1-16.98-16.1-2.81,0-5.74.11-8.31.33l-11.24,64.72h-14.9l12.95-74.79s11.24-1.31,23.46-1.31c20.16,0,33.11,8.54,29.81,27.16-3.3,18.62-19.3,25.95-39.22,25.95h-5.01l1.96-11.06Z"/>
          <path class="cls-1" d="m626.17,178.9s-4.4-.88-8.43-.88c-7.09,0-11.73,4.27-16.37,9.42l-5.86,33.84h-14.17l9.04-52.46h4.76l4.4,7.78c5.5-5.04,12.34-9.09,20.65-9.09,5.01,0,7.82.77,7.82.77l-1.83,10.62Z"/>
          <path class="cls-1" d="m649.63,168.83h2.08l-9.16,52.46h-14.17l8.55-49.17,12.71-3.29Zm-3.67-7.77c-6.11,0-7.94-3.61-7.21-7.77.73-4.38,3.66-7.88,9.89-7.88s7.94,3.5,7.21,7.88c-.73,4.16-3.66,7.77-9.9,7.77Z"/>
          <path class="cls-1" d="m699.1,189.86c.98-5.37,1.59-11.39-6.23-11.39-5.38,0-12.46,4.38-16.62,8.76l-5.99,34.06h-14.05l9.04-52.46h4.76l4.64,8.32c5.25-4.16,13.68-9.64,22.11-9.64,13.2,0,19.18,8.1,16.74,21.68l-5.62,32.09h-14.29l5.5-31.43Z"/>
          <path class="cls-1" d="m721.95,168.94h9.77l1.1-6.24c4.52-3.07,8.92-6.02,13.32-8.98h2.57l-2.69,15.22h19.3l-1.71,10.18h-19.43l-4.52,26.28c-.85,5.15-.85,6.9,5.86,6.9,5.01,0,9.04-.99,13.44-1.86l-1.83,10.18s-6.6,1.97-15.39,1.97c-13.32,0-18.33-6.13-16.37-17.19l4.52-26.28h-5.25l-2.93-8.87.24-1.31Z"/>
        </g>
      </g>
      <g>
        <path class="cls-1" d="m179.16,57.08c-3.44,30.4-32.62,43.58-64.64,43.58h-8.13l-8.25,47.36-7.33-3.13c-14.11-5.31-22.46-19.89-19.88-34.74l10.81-61.45s9.16-6.35,17.17-9.02c13.45-4.47,17.26-3.64,17.26-3.64l-5.38,38.96s5.3.79,12.14.65c14.94-.31,29.74-9.04,30.6-21.97,1-14.96-13.22-30.52-31.17-31.5-11.69-.64-19.39-.27-37.98,9.44-.58.34-1.21.69-1.9,1.05-8.38,4.34-21.89,18.05-26.77,31.29-2.84,9.36-12.15,17-20.39,14.2-10.61-3.61-12.29-15.1-6.05-24.31C47.21,27.33,67.33,13.54,86.05,6.58,91.51,4.39,104.84-.11,121.77,0c32.81.22,61.31,22.5,57.38,57.08Z"/>
        <path class="cls-2" d="m69.05,142.24c8.29,29.44,49.14,55.18,90.49,49.17,7.49-1.09,16.52-7.53,14.59-18.14-1.14-6.28-6.22-13.34-15.99-11.53-43.7,11.27-74.96-4.7-89.08-19.5Z"/>
        <path class="cls-4" d="m53.84,110.01c-18.69,24.21-14.99,72.35,14.48,101.96,5.34,5.37,15.9,8.77,23.26.9,4.36-4.66,7-12.95-.28-19.72-35.11-28.35-40.92-62.98-37.47-83.14Z"/>
        <path class="cls-3" d="m58.68,91.03C28.51,96.1-1.46,133.94.06,175.7c.28,7.57,5.71,17.23,16.46,16.45,6.37-.46,13.93-4.75,13.19-14.66-6.51-44.65,12.74-74.02,28.97-86.47Z"/>
      </g>
    </g>
  </g>
</svg>